{"title":"Tekken 2010 DVDRip XviD AC3-KiNGDOM (Kingdom-Release)","uid":5740382,"size":1481270744,"categoryP":"video","categoryS":"movies","magnet":"?xt=urn:btih:bab477fdfdff77d93e0b5dad6dc4b9a1b00a1de0&amp;dn=Tekken+2010+DVDRip+XviD+AC3-KiNGDOM+%28Kingdom-Release%29&amp;tr=udp%3A%2F%2Ftracker.openbittorrent.com%3A80&amp;tr=udp%3A%2F%2Fopen.demonii.com%3A1337&amp;tr=udp%3A%2F%2Ftracker.coppersurfer.tk%3A6969&amp;tr=udp%3A%2F%2Fexodus.desync.com%3A6969","seeders":0,"leechers":0,"uploader":"hiest","files":-1,"time":1281013487,"description":" \nA high-octane action movie about a young man who discovers he holds a great power and must battle a team of elite fighters who will stop at nothing in order to get it from him.\n\n\n\n  &lt;a href=&quot;\nhttp://www.imdb.com/title/tt0411951/&quot; rel=&quot;nofollow&quot; target=&quot;_NEW&quot;&gt;\nhttp://www.imdb.com/title/tt0411951/&lt;/a&gt;\nGenre:Action | Adventure | Drama | Fantasy | Sci-Fi \n\n\n \nVideo\nID : 0\nFormat : MPEG-4 Visual\nFormat profile : Advanced Simple@L5\nFormat settings, BVOP : Yes\nFormat settings, QPel : No\nFormat settings, GMC : No warppoints\nFormat settings, Matrix : Default (H.263)\nMuxing mode : Packed bitstream\nCodec ID : XVID\nCodec ID/Hint : XviD\nDuration : 1h 27mn\nBit rate : 1 780 Kbps\nWidth : 720 pixels\nHeight : 400 pixels\nDisplay aspect ratio : 16:9\nFrame rate : 25.000 fps\nResolution : 8 bits\nColorimetry : 4:2:0\nScan type : Progressive\nBits/(Pixel*Frame) : 0.247\nStream size : 1.09 GiB (80%)\nWriting library : XviD 1.2.1 (UTC 2008-12-04)\n\nAudio\nID : 1\nFormat : AC-3\nFormat/Info : Audio Coding 3\nCodec ID : 2000\nDuration : 1h 27mn\nBit rate mode : Constant\nBit rate : 448 Kbps\nChannel(s) : 6 channels\nChannel positions : Front: L C R, Surround: L R, LFE\nSampling rate : 48.0 KHz\nStream size : 280 MiB (20%)\nAlignment : Split accross interleaves\nInterleave, duration : 40 ms (1.00 video frame)\nInterleave, preload duration : 500 ms\n\n\n\nScreenshots:\n &lt;a href=&quot;\nhttp://postimg.com/image/20000/19129.jpg&quot; rel=&quot;nofollow&quot; target=&quot;_NEW&quot;&gt;\nhttp://postimg.com/image/20000/19129.jpg&lt;/a&gt;","torrent":{"xt":"urn:btih:bab477fdfdff77d93e0b5dad6dc4b9a1b00a1de0","amp;dn":"Tekken+2010+DVDRip+XviD+AC3-KiNGDOM+%28Kingdom-Release%29","amp;tr":["udp%3A%2F%2Ftracker.openbittorrent.com%3A80","udp%3A%2F%2Fopen.demonii.com%3A1337","udp%3A%2F%2Ftracker.coppersurfer.tk%3A6969","udp%3A%2F%2Fexodus.desync.com%3A6969"],"infoHash":"bab477fdfdff77d93e0b5dad6dc4b9a1b00a1de0","infoHashBuffer":{"type":"Buffer","data":[186,180,119,253,253,255,119,217,62,11,93,173,109,196,185,161,176,10,29,224]},"announce":[],"urlList":[]}}